<svg xmlns="http://www.w3.org/2000/svg" viewBox="0 0 718.5 79.5"><title>Fatkid at Heart</title><path d="M668.4 76.3c-2.8-2.2-24.1-17-26.9-43.6-3-28.6 27.4-42.2 41.1-20.6h.5C704.9-1 727.2 25 711.9 49.2s-43.3 27.3-43.5 27.1z" fill="#ff034b" stroke="#000" stroke-miterlimit="10" stroke-width="3"/><path d="M21.7 76a14.3 14.3 0 0 1-4.3 2.4 17.1 17.1 0 0 1-6.7 1.1 18.4 18.4 0 0 1-4.1-.4 12.8 12.8 0 0 1-3.4-1.4 7.2 7.2 0 0 1-2.3-2.3 5.8 5.8 0 0 1-.9-3.3V34.4C0 32.1 5.6 31 16.7 31h21.8l.9 1.9.7 2.3a20 20 0 0 1 .4 2.4 15.5 15.5 0 0 1 .1 2.1 10.6 10.6 0 0 1-1.7 6.4q-1.8 2.1-5.7 2.1H20.3a1.1 1.1 0 0 0-1 .4.9.9 0 0 0-.4.8v.3l.1.3h16.4a13.4 13.4 0 0 1 1.3 3.2 15.9 15.9 0 0 1-.1 9 8.5 8.5 0 0 1-1.6 2.9H16.8a.8.8 0 0 0-.2.7c0 .2 0 .4.2.5a1.5 1.5 0 0 0 .8.2h4.1zM50.4 34.3a19.1 19.1 0 0 1 3.2-1.7 22.2 22.2 0 0 1 3.9-1.2 18.4 18.4 0 0 1 4.2-.8 31.1 31.1 0 0 1 4.3-.3 26.9 26.9 0 0 1 5.7.5 19.8 19.8 0 0 1 5.2 1.6 13.3 13.3 0 0 1 4 2.9 9.6 9.6 0 0 1 2.3 4.2l8.5 35a12.7 12.7 0 0 1-4.8 3.6 18.1 18.1 0 0 1-7.8 1.4 16.1 16.1 0 0 1-3.9-.4 13.4 13.4 0 0 1-3.2-1 6.2 6.2 0 0 1-2.3-1.9 5.8 5.8 0 0 1-1.2-2.5l-.8-4.6 2.3-.2 2-.6 1.5-.8a1.2 1.2 0 0 0 .6-.9 1.4 1.4 0 0 0-.5-1l-1.6.9a12.7 12.7 0 0 1-1.8.6l-2 .4h-1.9a12.3 12.3 0 0 1-2.8-.2l-2.2-.5-1.6-.6-1.1-.7-.2.4a1.3 1.3 0 0 0-.1.6 1.2 1.2 0 0 0 .5 1 4.8 4.8 0 0 0 1.6.8l2.2.6 2.6.3a30.5 30.5 0 0 0 .5 4.1 18.2 18.2 0 0 0 .5 2 3.9 3.9 0 0 1-1.3 1.3 10.8 10.8 0 0 1-2.4 1.4 23.1 23.1 0 0 1-3.4 1 16.4 16.4 0 0 1-4 .4 19.3 19.3 0 0 1-4.9-.6 14 14 0 0 1-4.1-1.6 8.8 8.8 0 0 1-2.8-2.6 5.6 5.6 0 0 1-1-3.3v-.9l.1-.9zm17.4 19.1l-.7-3.5a20 20 0 0 0-.4-2.1 1.8 1.8 0 0 0-.6-.8c-.1-.2-.4-.2-.6-.2H65l-.4.2 1.4 7.5.4.2h1.1l.5-.2zM123.7 76a14.3 14.3 0 0 1-4.3 2.4 21 21 0 0 1-10.8.7 11.6 11.6 0 0 1-3.4-1.4 7.2 7.2 0 0 1-2.3-2.3 5.8 5.8 0 0 1-.9-3.3V48.2h-8.6a12.9 12.9 0 0 1-2.1-4 15.4 15.4 0 0 1-.6-4.3 14.2 14.2 0 0 1 .3-3.1 9.2 9.2 0 0 1 .8-2.5 5.9 5.9 0 0 1 1.1-1.9 8.7 8.7 0 0 1 1.2-1.4h38.4a12.4 12.4 0 0 1 1.7 4 15 15 0 0 1 .8 4.7 11.4 11.4 0 0 1-.6 3.9 5.9 5.9 0 0 1-1.5 2.7 7.1 7.1 0 0 1-2.2 1.5 8.8 8.8 0 0 1-2.9.4H117a1.4 1.4 0 0 0-.2.6.8.8 0 0 0 .2.5.9.9 0 0 0 .6.4l1.3.2h4.8zM161.1 43l-.9 2a5.1 5.1 0 0 0-.5 1.2 2 2 0 0 0-.1.7.9.9 0 0 0 .3.7q.2.3.9.3l7.3-16a12.3 12.3 0 0 1 6.7-1.7 12.5 12.5 0 0 1 4.3.7 11.6 11.6 0 0 1 3.7 1.8 9.5 9.5 0 0 1 2.5 3.1 10.2 10.2 0 0 1 .9 4.4 11.8 11.8 0 0 1-.7 4.1 15.8 15.8 0 0 1-2.1 3.8 17.4 17.4 0 0 1-3.1 3.6 28.8 28.8 0 0 1-3.9 3l-1.9-.9a5.1 5.1 0 0 0-1.7-.3 1.9 1.9 0 0 0-1.2.4 1.4 1.4 0 0 0-.5 1.2l1.4.3 1.5.6a6.5 6.5 0 0 1 1.6.9 12.5 12.5 0 0 1 1.9 1.5l9.9 9.1c-.4 4-1.5 6.9-3.5 9s-4.8 3-8.5 3a11.4 11.4 0 0 1-3.7-.5 10 10 0 0 1-3.3-1.6 13.3 13.3 0 0 1-2.9-2.9 18.1 18.1 0 0 1-2.4-4.4l-3.5-8.6h-.2a1.2 1.2 0 0 0-.9.3 1.1 1.1 0 0 0-.3.7 21 21 0 0 0 1 3.3l3.2 7.4V76a8.3 8.3 0 0 1-1.8 1.3 8.8 8.8 0 0 1-2.4 1.1 13.2 13.2 0 0 1-3 .8 20.2 20.2 0 0 1-3.6.3 17.5 17.5 0 0 1-4-.4 11.6 11.6 0 0 1-3.4-1.4 7.6 7.6 0 0 1-2.4-2.3 6.7 6.7 0 0 1-.8-3.3V33.8a11.8 11.8 0 0 1 4.6-2.5 21.1 21.1 0 0 1 10.5-.6 12 12 0 0 1 3.3 1.3 6.9 6.9 0 0 1 2.4 2.4 8 8 0 0 1 .8 3.6v1.7zM210.7 78.4a17.3 17.3 0 0 1-6.8 1.1 17.5 17.5 0 0 1-4-.4 11.6 11.6 0 0 1-3.4-1.4 8.4 8.4 0 0 1-2.3-2.3 5.8 5.8 0 0 1-.9-3.3V33.8a14.3 14.3 0 0 1 4.3-2.4 19.8 19.8 0 0 1 6.8-1.1 17.5 17.5 0 0 1 4 .5 11.5 11.5 0 0 1 3.4 1.3 7.2 7.2 0 0 1 2.3 2.3 5.8 5.8 0 0 1 .9 3.3V76a14.3 14.3 0 0 1-4.3 2.4zM230.9 78.9a8.9 8.9 0 0 1-6.3-2.1c-1.5-1.5-2.3-3.7-2.3-6.7V36.7a3.3 3.3 0 0 1 1.6-2.7 16.4 16.4 0 0 1 4.2-2.1 31.9 31.9 0 0 1 5.9-1.4 36.7 36.7 0 0 1 6.6-.5 40.9 40.9 0 0 1 10.8 1.4 24.3 24.3 0 0 1 8.4 4.5 20.4 20.4 0 0 1 5.5 7.8 29.4 29.4 0 0 1 1.9 11.3 25.4 25.4 0 0 1-1.9 10.2 20 20 0 0 1-5.4 7.5 22.8 22.8 0 0 1-8.4 4.6 35.7 35.7 0 0 1-11.2 1.6zm13.9-25.7l-.1-3c0-.8-.2-1.6-.3-2.1a1.9 1.9 0 0 0-.5-1.1.8.8 0 0 0-.7-.2h-.6l-.4.2.1 1.3a5.3 5.3 0 0 1 .1 1.3 7.6 7.6 0 0 1 .1 1.6l.1 2.4V56l-.1 2.3a9.1 9.1 0 0 1-.1 1.7 5.7 5.7 0 0 1-.1 1.3l-.1 1.2.4.2.6.2a.9.9 0 0 0 .7-.3 1.9 1.9 0 0 0 .5-1l.3-2.2.1-3zM303.6 34.3a19.1 19.1 0 0 1 3.2-1.7 22.2 22.2 0 0 1 3.9-1.2 18.4 18.4 0 0 1 4.2-.8 31.1 31.1 0 0 1 4.3-.3 27.8 27.8 0 0 1 5.8.5 20.3 20.3 0 0 1 5.1 1.6 13.3 13.3 0 0 1 4 2.9 8.7 8.7 0 0 1 2.3 4.2l8.5 35a12.7 12.7 0 0 1-4.8 3.6 18.1 18.1 0 0 1-7.8 1.4 16.1 16.1 0 0 1-3.9-.4 13.4 13.4 0 0 1-3.2-1 6.2 6.2 0 0 1-2.3-1.9 5.8 5.8 0 0 1-1.2-2.5l-.8-4.6 2.3-.2 2-.6 1.5-.8a1.2 1.2 0 0 0 .6-.9 1.4 1.4 0 0 0-.5-1l-1.6.9a12.7 12.7 0 0 1-1.8.6l-2 .4h-1.8a12.8 12.8 0 0 1-2.9-.2l-2.2-.5-1.6-.6-1.1-.7-.2.4a1.3 1.3 0 0 0-.1.6 1.6 1.6 0 0 0 .5 1 4.8 4.8 0 0 0 1.6.8l2.2.6 2.6.3.5 4.1a18.2 18.2 0 0 0 .5 2 3.9 3.9 0 0 1-1.3 1.3 8.9 8.9 0 0 1-2.4 1.4 23.1 23.1 0 0 1-3.4 1 16.4 16.4 0 0 1-4 .4 19.3 19.3 0 0 1-4.9-.6 15.2 15.2 0 0 1-4.1-1.6 8.8 8.8 0 0 1-2.8-2.6 5.6 5.6 0 0 1-1-3.3v-.9a2.9 2.9 0 0 1 .2-.9zM321 53.4l-.6-3.5-.5-2.1-.5-.8a1 1 0 0 0-.7-.2h-.5l-.4.2 1.4 7.5.4.2h1.1l.5-.2zM376.9 76a14.3 14.3 0 0 1-4.3 2.4 21 21 0 0 1-10.8.7 11.6 11.6 0 0 1-3.4-1.4 7.2 7.2 0 0 1-2.3-2.3 5.8 5.8 0 0 1-.9-3.3V48.2h-8.6a12.9 12.9 0 0 1-2.1-4 15.4 15.4 0 0 1-.6-4.3 14.2 14.2 0 0 1 .3-3.1 9.2 9.2 0 0 1 .8-2.5 11 11 0 0 1 2.3-3.3h38.4a12.4 12.4 0 0 1 1.7 4 15 15 0 0 1 .8 4.7 11.4 11.4 0 0 1-.6 3.9 5.9 5.9 0 0 1-1.5 2.7 7.1 7.1 0 0 1-2.2 1.5 8.8 8.8 0 0 1-2.9.4h-10.8a1.3 1.3 0 0 0-.1.6.7.7 0 0 0 .1.5.9.9 0 0 0 .6.4l1.3.2h4.8zM461.9 76.4a13.3 13.3 0 0 1-5.4 2.5 24.6 24.6 0 0 1-5.3.6 21.4 21.4 0 0 1-4.5-.5 12.3 12.3 0 0 1-3.5-1.5A7.5 7.5 0 0 1 441 75a6.7 6.7 0 0 1-.8-3.5v-7.4h3.9c.3-.1.6-.2.7-.4a.5.5 0 0 0 .3-.5v-.7h-11.6v.7a.8.8 0 0 0 .2.5 1.3 1.3 0 0 0 .6.4h3.9v12.3a14.6 14.6 0 0 1-3 1.6l-2.7 1-2.6.4h-2.3a20 20 0 0 1-4.5-.5 11.2 11.2 0 0 1-3.5-1.5 6.8 6.8 0 0 1-3.1-6v-37a14.6 14.6 0 0 1 4.9-3.1 16.6 16.6 0 0 1 5.8-1.1 14 14 0 0 1 4.1.6 8.8 8.8 0 0 1 3.5 1.7 8.4 8.4 0 0 1 2.5 2.8 9.1 9.1 0 0 1 .9 4.1V46h4.7a1.9 1.9 0 0 0-.3-1.3 2.1 2.1 0 0 0-1.2-.3h-1.2v-10a13.3 13.3 0 0 1 4.8-3.1 17.1 17.1 0 0 1 5.9-1.1 13.4 13.4 0 0 1 4 .6 9.2 9.2 0 0 1 3.6 1.7 8.1 8.1 0 0 1 2.4 2.8 9.2 9.2 0 0 1 1 4.1zM507.3 31l.9 1.7a11.7 11.7 0 0 1 .6 2 14.2 14.2 0 0 1 .4 2 13.7 13.7 0 0 1 .2 1.9q0 3.9-1.5 5.7a5 5 0 0 1-4.1 1.9h-14.9c-.9 0-1.4.3-1.4 1v.3l.1.3h17.7l.6 1.3a14.2 14.2 0 0 1 .5 1.6 13.6 13.6 0 0 1 .4 1.7 10.3 10.3 0 0 1 .1 1.7 16.4 16.4 0 0 1-.4 4 9.7 9.7 0 0 1-1.2 2.9h-8.1l-5.2.2a18.2 18.2 0 0 0-3.2.4l-1.7.6c-.3.2-.5.4-.5.6a1.3 1.3 0 0 0 .1.6.8.8 0 0 0 .4.4l1.9-.5a14.6 14.6 0 0 1 2.2-.3l2.6-.3h13.8l.9 1.3a14.7 14.7 0 0 1 .7 1.7 10.8 10.8 0 0 1 .5 2.1 23.3 23.3 0 0 1 .2 2.9 16.2 16.2 0 0 1-.1 2.1 17.4 17.4 0 0 1-.5 2.2 6.6 6.6 0 0 1-.8 2.1 7.8 7.8 0 0 1-1.1 1.8h-27.8a17.7 17.7 0 0 1-4.1-.5 10.3 10.3 0 0 1-3.3-1.7 8 8 0 0 1-2.2-2.9 8.6 8.6 0 0 1-.8-4.1V34.4c0-1.2 1.3-2.1 4.1-2.6a74.9 74.9 0 0 1 12.6-.8zM523.9 34.3a20.3 20.3 0 0 1 3.3-1.7 24 24 0 0 1 3.8-1.2 18.4 18.4 0 0 1 4.2-.8 31.5 31.5 0 0 1 4.4-.3 27.5 27.5 0 0 1 5.7.5 21 21 0 0 1 5.2 1.6 14.7 14.7 0 0 1 4 2.9 9.5 9.5 0 0 1 2.2 4.2l8.5 35a11.3 11.3 0 0 1-4.8 3.6 17.6 17.6 0 0 1-7.8 1.4 16.1 16.1 0 0 1-3.9-.4 13.4 13.4 0 0 1-3.2-1 7.1 7.1 0 0 1-2.3-1.9 5.8 5.8 0 0 1-1.2-2.5l-.8-4.6 2.3-.2 2-.6 1.5-.8a1.2 1.2 0 0 0 .6-.9 1.4 1.4 0 0 0-.5-1l-1.5.9-1.9.6-2 .4h-1.8a13.2 13.2 0 0 1-2.9-.2l-2.1-.5-1.6-.6a5.2 5.2 0 0 1-1.1-.7l-.3.4a1.3 1.3 0 0 0-.1.6 1.4 1.4 0 0 0 .6 1 5.3 5.3 0 0 0 1.5.8l2.2.6 2.6.3.5 4.1a6.8 6.8 0 0 0 .6 2 5.2 5.2 0 0 1-1.3 1.3A11.7 11.7 0 0 1 536 78l-3.3 1a17.5 17.5 0 0 1-4 .4 20.1 20.1 0 0 1-5-.6 15.2 15.2 0 0 1-4.1-1.6 10 10 0 0 1-2.8-2.6 6.4 6.4 0 0 1-1-3.3v-.9l.2-.9zm17.4 19.1l-.6-3.5a16.5 16.5 0 0 0-.5-2.1c-.2-.4-.3-.7-.5-.8a.8.8 0 0 0-.7-.2h-.5l-.4.2 1.4 7.5.4.2h1.2l.4-.2zM617.2 67.5c-.4 3.8-1.6 6.7-3.6 8.8s-4.7 3.2-8.3 3.2a13.9 13.9 0 0 1-3.5-.4 9.3 9.3 0 0 1-3.4-1.5 13.3 13.3 0 0 1-3.1-2.8 17.3 17.3 0 0 1-2.5-4.7l-1.3-3.7h-2.4l-1.6-.3-.2.3a4.3 4.3 0 0 0-.1.5.9.9 0 0 0 .6.8 8.1 8.1 0 0 0 2.4.4l2.2 5.4v3.1a15.3 15.3 0 0 1-5 2.3 23.5 23.5 0 0 1-6 .7 18.7 18.7 0 0 1-4.2-.4 10 10 0 0 1-3.3-1.5 5.6 5.6 0 0 1-2.2-2.4 7.1 7.1 0 0 1-.8-3.4V36.6a2.4 2.4 0 0 1 .9-1.7 7.1 7.1 0 0 1 2.3-1.6 23.4 23.4 0 0 1 3.5-1.3l4.3-1.1 4.7-.7 4.9-.2a42 42 0 0 1 9.8 1.1 21.3 21.3 0 0 1 7.6 3.5 16.4 16.4 0 0 1 4.9 5.6 17.3 17.3 0 0 1 1.7 7.8 15.1 15.1 0 0 1-.8 4.8 12.2 12.2 0 0 1-2.1 3.9 14.7 14.7 0 0 1-3.2 2.9 13.3 13.3 0 0 1-3.8 1.8 1.3 1.3 0 0 0 .4 1l.9.2 1.6-.3a10.1 10.1 0 0 0 2.3-1.4zm-25.5-15h.6a1.5 1.5 0 0 0 1.3-.6 3.7 3.7 0 0 0 .4-1.8v-1.2a4.1 4.1 0 0 0-.4-1.9 1.1 1.1 0 0 0-1.1-.6h-.9l.1.7v5.3zM653.5 76a13.2 13.2 0 0 1-4.3 2.4 16.8 16.8 0 0 1-6.7 1.1 17.5 17.5 0 0 1-4-.4 11.6 11.6 0 0 1-3.4-1.4 7.6 7.6 0 0 1-2.4-2.3 6.7 6.7 0 0 1-.8-3.3V48.2h-8.7a15 15 0 0 1-2-4 15.4 15.4 0 0 1-.6-4.3 14.2 14.2 0 0 1 .3-3.1 9.1 9.1 0 0 1 .7-2.5 16 16 0 0 1 1.1-1.9A5.8 5.8 0 0 1 624 31h38.3a15 15 0 0 1 1.8 4 15.8 15.8 0 0 1 .2 8.6 8.7 8.7 0 0 1-1.5 2.7 8.6 8.6 0 0 1-2.2 1.5 9.2 9.2 0 0 1-2.9.4h-10.9l-.1.6a.8.8 0 0 0 .2.5.9.9 0 0 0 .6.4l1.3.2h4.7z"/></svg>